<?xml version="1.0" encoding="UTF-8"?>
<!-- Generated by Pixelmator Pro 3.3 -->
<svg width="900" height="800" viewBox="0 0 900 800" xmlns="http://www.w3.org/2000/svg" xmlns:xlink="http://www.w3.org/1999/xlink">
    <g id="Group">
        <path id="Path" fill="#000000" stroke="none" d="M 380.12735 68.933044 C 308.828094 74.06781 224.912216 96.660583 175.472214 123.801208 C 120.89753 153.875977 84.514343 194.220215 71.164116 239.112305 C 65.882706 256.863708 65.295822 275.642151 65.442558 402.39624 L 65.589302 507.291199 L 69.403603 521.228271 C 76.005379 545.581543 84.954491 562.30603 102.559235 583.138306 C 112.095161 594.58136 132.487305 613.066345 146.130951 622.602295 C 168.430283 638.299805 208.187622 658.39856 235.915176 667.934448 C 274.058746 681.138 315.283203 689.646973 363.256104 694.488281 C 387.022614 696.835571 448.639221 696.9823 470.351654 694.63501 C 528.88739 688.32666 580.08783 675.856628 624.686646 656.78479 C 639.21051 650.623108 641.264404 649.302795 641.997925 645.78186 C 643.465027 639.326782 641.851257 638.446533 634.955994 642.260864 C 609.282471 656.491394 555.294495 673.215881 512.162903 680.257813 C 427.513428 694.048157 346.531647 690.380554 270.684509 669.40155 C 219.777542 655.171021 165.349472 627.590271 132.780716 599.276001 C 118.403526 586.805908 91.116127 553.503662 91.116127 548.368896 C 91.116127 547.782104 99.625084 555.850952 110.041237 565.973633 C 138.502274 593.847839 159.041092 608.81189 191.023102 624.802856 C 235.181686 646.955505 283.447937 660.452454 345.651337 668.081177 C 367.363953 670.721924 379.980682 671.308716 416.803955 671.308716 C 462.722931 671.455444 480.327667 670.281738 513.630005 664.853638 C 553.534058 658.39856 596.518921 645.78186 626.59375 631.698059 C 641.117615 624.949585 642.731384 623.775879 642.731384 618.347778 C 642.731384 614.23999 641.704407 614.23999 633.782349 618.641174 C 610.602783 631.551331 549.279541 650.036316 507.028259 657.078186 C 459.202026 665.000366 384.968689 665.44043 334.648376 658.251831 C 256.45401 647.102173 184.42131 617.760986 137.035172 578.00354 C 112.97538 557.758118 100.50531 542.354004 97.571228 529.297119 C 96.69101 525.33606 97.131088 525.629456 100.945457 531.497742 C 109.747826 544.99469 136.00827 567.880859 160.801605 583.725098 C 186.621918 600.302917 225.352356 617.467529 258.654602 627.003418 C 323.352081 645.78186 415.483521 652.970459 484.288696 644.754883 C 541.210754 638.006409 593.438171 623.922607 630.994934 605.144226 C 641.704407 599.862793 644.051819 597.222046 642.144592 592.23407 C 641.557739 590.473633 639.063843 591.207153 629.967957 595.901733 C 612.216553 604.704102 580.674805 616.000488 555.881287 622.308838 C 469.17804 644.314819 378.660248 645.78186 294.30423 626.563354 C 211.708649 607.784912 135.861542 565.093445 104.759827 519.76123 C 95.077232 505.677429 97.864639 505.824097 111.80175 519.907959 C 134.981308 543.38092 159.481247 560.692261 193.810501 577.856873 C 214.055923 587.832886 226.525986 592.820923 250.292374 600.15625 C 293.42395 613.50647 329.513702 619.374695 386.142303 622.602295 C 472.992401 627.443542 555.294495 614.386719 623.219543 584.898804 C 631.43512 581.377808 638.917053 578.443726 639.650635 578.443726 C 641.557739 578.443726 643.318237 571.841919 642.291382 568.907776 C 641.557739 567.294067 638.623657 568.027588 627.033875 573.162231 C 588.890198 590.033447 542.237732 603.237061 495.878479 610.132202 C 470.351654 613.946594 466.097137 614.23999 416.070313 614.23999 C 359.441711 614.386719 346.238159 613.213013 307.507782 605.437622 C 267.310303 597.368774 214.642731 578.590393 184.127838 561.57251 C 165.349472 551.009644 139.822571 532.964783 127.939384 521.815063 C 113.855606 508.611511 101.679008 493.647522 99.918495 487.48587 C 98.59819 482.79129 100.358643 481.470917 102.559235 485.285278 C 104.759827 489.393066 122.364571 506.704407 132.927383 515.359985 C 149.798645 529.150391 163.295609 537.512695 198.505096 556.437744 C 204.520065 559.665283 236.648666 571.69519 251.612671 576.096436 C 303.106598 591.793945 360.322021 599.422668 423.552399 599.276001 C 502.480255 598.982544 564.39032 586.365845 631.728455 556.731201 C 641.411072 552.476685 642.731384 551.30304 642.731384 546.461731 C 642.731384 542.207275 640.677612 542.354004 630.848267 547.048584 C 561.162781 580.791016 458.908539 597.368774 369.271057 589.446655 C 315.283203 584.752075 274.205414 575.362854 227.846298 557.464722 C 181.487167 539.4198 138.062134 511.105591 114.589157 483.818176 C 103.732864 471.201447 99.918495 464.893127 99.918495 459.90506 C 99.918495 456.824249 100.652046 457.411072 105.493378 463.572754 C 117.523239 478.683502 140.262726 498.195435 160.801605 511.105591 C 167.256653 515.213257 183.100952 523.72229 196.011093 530.03064 C 236.648666 549.835938 275.379181 560.985657 333.914886 569.788025 C 353.426758 572.722168 362.522614 573.162231 413.13623 573.455688 C 466.390625 573.895813 472.112122 573.602356 495.291656 570.374878 C 527.713745 565.973633 551.773621 560.838989 575.686646 553.503662 C 597.105774 547.048584 625.420105 536.632446 635.102661 531.644409 C 640.530823 528.856995 641.264404 527.976807 641.264404 523.428833 C 641.264404 517.560608 639.797302 517.120483 633.195557 521.228271 C 616.617737 531.497742 568.058044 547.635376 528.300537 556.291077 C 493.677887 563.773071 469.031372 565.973633 417.537445 565.973633 C 371.471649 565.973633 360.468689 565.386841 329.513702 560.692261 C 277.72644 552.916809 219.777542 533.551575 179.433243 510.665436 C 144.66391 490.713348 99.918495 449.782379 99.918495 437.899139 C 99.918495 434.378235 100.652046 434.818329 108.574196 443.620697 C 128.672943 465.773346 159.627914 488.072693 194.543991 505.530701 C 241.04985 528.563599 305.160522 544.554565 369.271057 549.102478 C 460.815796 555.557495 540.330505 544.847961 614.123657 516.093628 C 634.515869 508.024689 641.704407 503.770264 643.024841 498.342102 L 644.198486 493.79425 L 654.761292 495.848114 C 679.848145 500.542694 764.49762 515.359985 766.551392 515.359985 C 768.165222 515.359985 768.898804 514.039673 768.898804 510.958832 C 768.898804 507.584625 768.165222 506.410919 765.671265 505.824097 C 756.868896 503.916931 645.078796 483.084686 643.611694 483.084686 C 643.17157 483.084686 642.731384 484.991882 642.731384 487.48587 C 642.731384 493.207367 636.423096 497.168457 610.749451 507.437897 C 510.255798 547.488708 385.848846 554.237183 278.45993 525.482788 C 207.894287 506.557648 155.373459 477.803223 116.349609 437.018921 C 104.906494 425.135712 99.918495 417.506989 99.918495 411.932159 C 99.918495 410.758545 106.667015 416.62677 114.882568 425.135712 C 137.475311 448.755432 164.32251 466.946991 203.346436 485.285278 C 243.39711 504.210327 293.277252 517.120483 351.519653 523.575562 C 384.381866 527.243225 453.187073 527.243225 482.821747 523.72229 C 540.77063 516.68042 588.303406 504.210327 628.500854 485.725372 C 640.09082 480.297272 641.264404 479.416992 641.264404 475.602631 C 641.264404 473.402039 641.851257 471.054749 642.731384 470.614624 C 643.465027 470.17453 671.485901 474.722382 704.934814 480.884094 C 738.237183 486.899048 766.404724 491.887054 767.285034 491.887054 C 768.165222 491.887054 768.898804 489.979889 768.898804 487.48587 C 768.898804 482.497864 766.551392 480.884094 757.162231 479.416992 C 753.49469 478.976898 735.743103 475.602631 717.551575 471.934998 C 699.359985 468.414032 677.354065 464.306244 668.405029 462.692535 C 659.602661 461.078766 650.21344 459.318237 647.572754 458.878174 C 643.024841 457.851196 642.878174 457.997864 641.704407 464.159576 L 640.530823 470.321198 L 624.393188 477.2164 C 559.108887 505.090607 491.477295 518.294189 413.429718 518.294189 C 353.866913 518.294189 294.450897 508.464844 245.1577 490.419952 C 238.262436 487.925964 229.019928 484.551727 224.618744 482.937958 C 211.855331 478.390106 182.51413 463.719421 168.870422 455.21048 C 133.367538 433.057861 98.158051 398.581879 100.211906 388.165771 C 100.50531 386.698669 105.053238 390.65979 112.97538 399.462158 C 127.059166 414.866302 145.984283 429.683655 169.897385 443.914093 C 214.496063 470.761353 274.058746 489.686462 338.316071 497.608551 C 388.049438 503.770264 422.232086 504.797211 463.016388 501.422913 C 511.282623 497.315155 552.65387 489.246307 590.210632 476.336182 C 624.97998 464.452972 642.731384 455.357208 642.731384 449.195496 C 642.731384 445.527863 644.638672 444.794312 649.47998 446.408081 C 651.827271 447.141663 660.042786 448.755432 667.671509 449.929047 C 675.300293 451.102692 697.746216 454.917053 717.551575 458.584747 C 737.356873 462.25238 757.015564 465.773346 761.270081 466.360168 L 769.045471 467.387146 L 768.605347 462.399048 L 768.165222 457.411072 L 735.156311 451.24942 C 716.964722 447.728455 690.704407 442.887207 676.767273 440.393127 C 662.683533 438.045868 649.626648 435.405121 647.572754 434.524902 C 642.584717 432.617737 642.731384 432.617737 642.731384 438.339264 C 642.731384 443.47403 642.731384 443.47403 624.833313 452.129639 C 584.049011 471.78833 530.061157 485.578705 471.231964 491.153503 C 429.127197 495.261292 397.732086 494.967865 354.453735 490.419952 C 281.100677 482.497864 211.268509 459.024841 160.801605 425.429138 C 125.738792 401.956146 101.385605 376.575928 101.385605 363.078979 C 101.385605 361.905334 103.879601 364.252686 106.960419 368.213715 C 134.394501 402.689636 188.382355 435.258453 249.558884 454.183563 C 302.81311 470.614624 343.744232 476.922974 406.534454 478.243347 C 485.609131 479.857147 550.746643 468.56076 617.791382 441.713501 C 627.914063 437.605713 636.716431 433.791351 637.303223 433.204529 C 638.917053 431.737488 635.249451 425.869263 632.902039 425.869263 C 631.875244 425.869263 624.833313 428.509949 617.351257 431.590759 C 575.833435 449.342255 528.88739 460.932037 474.752838 467.240387 C 450.106171 470.027802 379.833862 469.587738 353.866913 466.506836 C 294.157562 459.318237 246.918137 446.408081 204.8134 425.869263 C 137.91539 393.153778 99.478416 354.716736 83.047302 304.103119 C 79.379669 293.100159 78.939529 289.285767 78.792854 271.094238 C 78.792854 247.181091 81.433525 235.004517 91.262863 215.199158 C 109.601158 178.522583 150.238724 142.57959 199.678726 119.546692 C 250.292374 95.780334 309.561707 80.522827 376.312988 73.774414 C 411.375793 70.253418 423.405731 70.106689 454.21402 73.040833 C 527.273621 80.082764 587.423218 95.927002 638.917053 121.747314 C 713.003723 158.863953 751.440735 207.277039 755.401794 268.013428 L 756.428711 285.324707 L 748.213196 284.591187 C 736.183289 283.270813 734.716309 282.390564 736.03656 277.842712 C 738.090515 270.947449 737.063538 252.315857 733.835999 239.699097 C 729.874939 224.001526 716.964722 199.208191 705.081604 184.244141 C 677.794189 150.061584 622.045898 117.34613 561.309448 99.741394 C 510.255798 84.777344 469.17804 79.055786 413.86972 79.202515 C 344.477722 79.202515 278.019775 92.846191 219.043915 119.106567 C 157.427322 146.540649 115.762794 187.324951 100.652046 235.151184 C 97.424492 245.420654 96.69101 250.555298 96.544273 264.492432 C 96.397598 283.564209 98.011307 292.073181 105.346642 309.237854 C 129.113022 364.986145 189.409317 408.70462 278.166595 434.671631 C 313.816101 445.087799 340.076538 449.048828 393.62439 452.276398 C 445.998474 455.503876 514.510193 447.435059 564.536987 432.32431 C 583.755554 426.456085 609.869324 416.333344 613.536865 413.252533 C 616.764404 410.31839 619.258484 410.758545 625.420105 414.866302 C 630.848267 418.533936 635.396118 419.560913 692.611572 430.123718 C 713.29718 433.93808 747.479675 439.953064 764.204163 442.740448 C 768.605347 443.620697 768.898804 443.327271 768.898804 439.219513 C 768.898804 436.872223 768.312012 434.524902 767.578369 433.93808 C 765.817932 432.911133 693.491821 418.974091 656.668579 412.66571 C 616.617737 405.623779 613.830322 404.890228 607.228577 398.435211 C 604.147705 395.501038 601.653748 392.420227 601.653748 391.686676 C 601.653748 390.953186 604.734497 390.65979 608.695557 391.099854 C 615.737488 391.833405 694.812134 405.917206 741.464722 414.719574 C 769.485657 420.000977 770.219116 419.854309 768.312012 412.078888 C 767.725159 409.438171 766.111389 408.411194 761.270081 407.677704 C 757.749023 407.237579 743.078491 404.450165 728.554504 401.66275 C 714.03064 399.022003 692.905029 394.914246 681.608582 392.860382 C 670.312134 390.806458 650.800293 387.138824 638.3302 384.791504 C 625.860291 382.444244 609.282471 379.510071 601.800415 378.04303 C 589.183655 375.695709 587.27655 374.962219 581.554932 369.680756 C 578.034058 366.453278 575.246643 363.372375 575.246643 362.638885 C 575.246643 360.438293 580.381287 361.025116 616.911072 367.920319 C 672.952881 378.189728 766.111389 395.060974 767.578369 395.060974 C 768.312012 395.060974 768.898804 393.153778 768.898804 390.65979 C 768.898804 385.525055 766.551392 384.058014 756.428711 382.590912 C 752.467712 382.150818 732.955688 378.483124 713.150391 374.522095 C 654.761292 362.932312 585.662781 349.875427 572.312439 347.968231 C 561.162781 346.354523 559.108887 345.474243 552.947205 340.339569 C 548.986206 337.112 545.905334 333.88446 545.905334 333.004211 C 545.905334 331.243774 553.827515 332.123993 575.980103 336.231781 C 605.027954 341.513184 655.05481 350.608978 680.875122 355.303558 C 722.099548 362.785553 762.150208 370.267639 765.671265 371.147858 C 768.605347 371.881348 768.898804 371.294525 768.898804 366.599945 C 768.898804 360.73172 766.991577 359.264679 757.895874 357.944305 C 754.668274 357.50415 745.132324 355.743713 736.623413 354.129944 C 675.887085 342.393402 598.572876 328.016235 570.111816 323.174896 C 551.480103 320.094086 534.609009 316.866516 532.701721 315.986298 C 528.15387 314.225861 519.498169 306.303711 519.498169 304.103119 C 519.498169 302.195923 522.432434 302.489319 547.372437 307.183929 C 555.881287 308.797699 590.210632 314.959351 623.659668 320.974304 C 657.108582 326.989258 703.02771 335.204803 725.620422 339.312592 C 748.359863 343.273651 767.285034 346.647919 767.871826 346.647919 C 769.632324 346.647919 769.045471 338.285645 766.991577 336.671844 C 765.9646 335.791626 747.039551 331.683868 724.886963 327.57608 C 702.734192 323.468292 667.084717 316.719849 645.665588 312.758728 C 572.605896 298.968384 530.50116 291.192963 518.764709 289.432526 C 512.30957 288.405548 505.41449 286.645081 503.360565 285.618164 C 498.519226 283.270813 490.890472 275.055237 492.064117 273.734924 C 492.651062 273.148071 498.959381 273.881653 506.001282 275.201965 C 513.043213 276.522339 529.620972 279.603149 542.971252 282.097168 C 556.321472 284.444519 586.983093 290.019318 611.189636 294.420502 C 662.683533 303.809692 762.737061 321.707855 765.9646 322.14801 C 767.578369 322.294678 768.165222 320.974304 768.165222 317.306671 C 768.165222 312.612061 767.725159 312.025269 762.297058 310.411469 C 759.069458 309.53125 746.159241 307.037262 733.689331 304.83667 C 721.219238 302.636078 683.222351 295.594147 649.333191 289.285767 C 593.878357 278.722961 481.941437 258.624207 479.30069 258.624207 C 478.713898 258.624207 480.621124 261.558289 483.555206 265.226013 C 486.636108 268.893616 488.68988 272.708008 488.249878 273.881653 C 487.369598 275.935547 467.56424 282.977417 452.013428 286.791748 C 446.731964 287.965393 434.848694 288.698944 417.537445 288.552216 C 395.531494 288.552216 388.929718 287.965393 377.926758 285.177979 C 336.995789 275.201965 315.57666 259.357727 309.121552 234.711121 C 303.546753 213.145264 316.016693 192.16626 343.010742 178.229187 C 377.926758 160.184326 426.046326 156.223267 465.95047 167.81311 C 481.207947 172.360962 498.812683 181.456726 508.055206 189.672302 C 517.591064 198.181213 526.833618 214.31897 526.833618 222.681152 C 526.833618 231.190125 523.899353 240.872742 520.965271 241.75293 C 518.764709 242.486511 497.198914 239.112305 465.07019 232.950562 C 451.133148 230.163147 451.573273 230.163147 453.480408 233.684143 C 457.148102 240.579346 464.483368 243.953552 481.501282 246.887695 C 490.743805 248.354736 538.570068 257.010437 587.716553 265.959473 C 637.009888 274.908569 688.06366 284.151062 701.41394 286.498352 C 714.76416 288.845703 735.009644 292.660004 746.452759 294.713928 C 758.042542 296.91452 767.578369 298.52829 767.871826 298.088135 C 768.165222 297.794739 767.871826 286.938538 767.285034 273.881653 C 766.404724 253.196045 765.671265 248.794861 761.710205 236.911682 C 752.907837 210.651245 739.850952 189.819031 718.285156 168.253174 C 673.393005 123.067688 599.159668 90.939026 503.360565 75.241455 C 465.363647 69.079834 414.163208 66.439087 380.12735 68.933044 Z"/>
        <path id="path1" fill="#000000" stroke="none" d="M 406.387787 209.770996 C 403.160248 210.504578 400.959656 216.079407 402.13327 220.480591 C 402.86676 223.414734 404.333862 224.441589 410.202179 225.761963 C 417.97757 227.375793 423.699066 226.495544 429.567352 222.681152 C 434.261871 219.600342 433.675079 213.291992 428.540405 210.651245 C 425.019501 208.890808 411.522461 208.303955 406.387787 209.770996 Z M 415.336823 218.13324 C 415.336823 218.426697 414.309875 219.160217 412.989563 219.600342 C 411.815948 220.040405 411.229126 219.893738 411.669128 219.01355 C 412.549438 217.546448 415.336823 216.959595 415.336823 218.13324 Z"/>
    </g>
</svg>
